<mxfile host="app.diagrams.net" modified="2023-11-14T09:50:14.115Z" agent="Mozilla/5.0 (X11; Ubuntu; Linux x86_64; rv:109.0) Gecko/20100101 Firefox/118.0" etag="h-9m7Ssd3bAXH2u-hmeV" version="22.1.0" type="github">
  <diagram id="C5RBs43oDa-KdzZeNtuy" name="Page-1">
    <mxGraphModel dx="2728" dy="1590" grid="1" gridSize="10" guides="1" tooltips="1" connect="1" arrows="1" fold="1" page="1" pageScale="1" pageWidth="827" pageHeight="1169" math="0" shadow="0">
      <root>
        <mxCell id="WIyWlLk6GJQsqaUBKTNV-0" />
        <mxCell id="WIyWlLk6GJQsqaUBKTNV-1" parent="WIyWlLk6GJQsqaUBKTNV-0" />
        <mxCell id="p8BYgvt-08YJZqckWoOW-60" value="" style="group" vertex="1" connectable="0" parent="WIyWlLk6GJQsqaUBKTNV-1">
          <mxGeometry x="600" y="1195.44" width="452.5" height="426.56" as="geometry" />
        </mxCell>
        <mxCell id="p8BYgvt-08YJZqckWoOW-42" value="&lt;font style=&quot;font-size: 16px;&quot;&gt;main()&lt;/font&gt;" style="ellipse;whiteSpace=wrap;html=1;" vertex="1" parent="p8BYgvt-08YJZqckWoOW-60">
          <mxGeometry x="70.61305732484077" width="311.27388535031844" height="80.70054054054054" as="geometry" />
        </mxCell>
        <mxCell id="p8BYgvt-08YJZqckWoOW-44" value="&lt;div style=&quot;font-size: 16px;&quot;&gt;&lt;font style=&quot;font-size: 16px;&quot;&gt;rows, cols = 14, 14&lt;/font&gt;&lt;/div&gt;&lt;div style=&quot;font-size: 16px;&quot;&gt;&lt;font style=&quot;font-size: 16px;&quot;&gt;matrix = numpy.random.randint(2, size=(rows, cols))&lt;/font&gt;&lt;/div&gt;" style="rounded=0;whiteSpace=wrap;html=1;" vertex="1" parent="p8BYgvt-08YJZqckWoOW-60">
          <mxGeometry y="126.81513513513515" width="452.5" height="80.70054054054054" as="geometry" />
        </mxCell>
        <mxCell id="p8BYgvt-08YJZqckWoOW-43" style="edgeStyle=orthogonalEdgeStyle;rounded=0;orthogonalLoop=1;jettySize=auto;html=1;exitX=0.5;exitY=1;exitDx=0;exitDy=0;" edge="1" parent="p8BYgvt-08YJZqckWoOW-60" source="p8BYgvt-08YJZqckWoOW-42" target="p8BYgvt-08YJZqckWoOW-44">
          <mxGeometry relative="1" as="geometry">
            <mxPoint x="227.01857749469195" y="115.2864864864865" as="targetPoint" />
          </mxGeometry>
        </mxCell>
        <mxCell id="p8BYgvt-08YJZqckWoOW-48" value="&lt;font style=&quot;font-size: 16px;&quot;&gt;matrix, ones,zeros&lt;/font&gt;" style="shape=document;whiteSpace=wrap;html=1;boundedLbl=1;" vertex="1" parent="p8BYgvt-08YJZqckWoOW-60">
          <mxGeometry x="143.38197452229312" y="357.38810810810816" width="165.7245222929936" height="69.1718918918919" as="geometry" />
        </mxCell>
        <mxCell id="p8BYgvt-08YJZqckWoOW-52" style="edgeStyle=orthogonalEdgeStyle;rounded=0;orthogonalLoop=1;jettySize=auto;html=1;entryX=0.5;entryY=0;entryDx=0;entryDy=0;" edge="1" parent="p8BYgvt-08YJZqckWoOW-60" source="p8BYgvt-08YJZqckWoOW-51" target="p8BYgvt-08YJZqckWoOW-48">
          <mxGeometry relative="1" as="geometry" />
        </mxCell>
        <mxCell id="p8BYgvt-08YJZqckWoOW-51" value="&lt;div style=&quot;font-size: 16px;&quot;&gt;&lt;font style=&quot;font-size: 16px;&quot;&gt;ones = find_squares(matrix,1)&lt;/font&gt;&lt;/div&gt;&lt;div style=&quot;font-size: 16px;&quot;&gt;&lt;font style=&quot;font-size: 16px;&quot;&gt;zeros = find_squares(matrix,0)&lt;/font&gt;&lt;/div&gt;" style="shape=process;whiteSpace=wrap;html=1;backgroundOutline=1;" vertex="1" parent="p8BYgvt-08YJZqckWoOW-60">
          <mxGeometry x="62.69286624203834" y="253.6302702702703" width="327.12579617834393" height="69.1718918918919" as="geometry" />
        </mxCell>
        <mxCell id="p8BYgvt-08YJZqckWoOW-50" style="edgeStyle=orthogonalEdgeStyle;rounded=0;orthogonalLoop=1;jettySize=auto;html=1;" edge="1" parent="p8BYgvt-08YJZqckWoOW-60" source="p8BYgvt-08YJZqckWoOW-44" target="p8BYgvt-08YJZqckWoOW-51">
          <mxGeometry relative="1" as="geometry">
            <mxPoint x="227.69108280254775" y="242.10162162162163" as="targetPoint" />
          </mxGeometry>
        </mxCell>
        <mxCell id="p8BYgvt-08YJZqckWoOW-61" value="" style="group" vertex="1" connectable="0" parent="WIyWlLk6GJQsqaUBKTNV-1">
          <mxGeometry x="740" y="1700" width="182.81" height="441.8" as="geometry" />
        </mxCell>
        <mxCell id="p8BYgvt-08YJZqckWoOW-49" value="" style="ellipse;whiteSpace=wrap;html=1;" vertex="1" parent="p8BYgvt-08YJZqckWoOW-61">
          <mxGeometry x="28.08418625000061" width="126.64162749999998" height="121.87586206896553" as="geometry" />
        </mxCell>
        <mxCell id="p8BYgvt-08YJZqckWoOW-54" value="&lt;font style=&quot;font-size: 16px;&quot;&gt;main()&lt;/font&gt;" style="shape=process;whiteSpace=wrap;html=1;backgroundOutline=1;" vertex="1" parent="p8BYgvt-08YJZqckWoOW-61">
          <mxGeometry y="182.81379310344795" width="182.81" height="91.40689655172415" as="geometry" />
        </mxCell>
        <mxCell id="p8BYgvt-08YJZqckWoOW-53" style="edgeStyle=orthogonalEdgeStyle;rounded=0;orthogonalLoop=1;jettySize=auto;html=1;" edge="1" parent="p8BYgvt-08YJZqckWoOW-61" source="p8BYgvt-08YJZqckWoOW-49" target="p8BYgvt-08YJZqckWoOW-54">
          <mxGeometry relative="1" as="geometry">
            <mxPoint x="91.405" y="228.51724137931" as="targetPoint" />
          </mxGeometry>
        </mxCell>
        <mxCell id="p8BYgvt-08YJZqckWoOW-57" value="" style="ellipse;whiteSpace=wrap;html=1;" vertex="1" parent="p8BYgvt-08YJZqckWoOW-61">
          <mxGeometry x="28.08418625000061" y="319.9241379310345" width="126.64162749999998" height="121.87586206896553" as="geometry" />
        </mxCell>
        <mxCell id="p8BYgvt-08YJZqckWoOW-58" value="" style="endArrow=none;html=1;rounded=0;exitX=0;exitY=1;exitDx=0;exitDy=0;entryX=1;entryY=0;entryDx=0;entryDy=0;" edge="1" parent="p8BYgvt-08YJZqckWoOW-61" source="p8BYgvt-08YJZqckWoOW-57" target="p8BYgvt-08YJZqckWoOW-57">
          <mxGeometry width="50" height="50" relative="1" as="geometry">
            <mxPoint x="195.66001958333393" y="335.1586206896552" as="sourcePoint" />
            <mxPoint x="271.83085291666725" y="258.9862068965517" as="targetPoint" />
          </mxGeometry>
        </mxCell>
        <mxCell id="p8BYgvt-08YJZqckWoOW-55" style="edgeStyle=orthogonalEdgeStyle;rounded=0;orthogonalLoop=1;jettySize=auto;html=1;entryX=0.5;entryY=0;entryDx=0;entryDy=0;" edge="1" parent="p8BYgvt-08YJZqckWoOW-61" source="p8BYgvt-08YJZqckWoOW-54" target="p8BYgvt-08YJZqckWoOW-57">
          <mxGeometry relative="1" as="geometry">
            <mxPoint x="120.67745125000022" y="289.4551724137928" as="targetPoint" />
          </mxGeometry>
        </mxCell>
        <mxCell id="p8BYgvt-08YJZqckWoOW-59" value="" style="endArrow=none;html=1;rounded=0;exitX=1;exitY=1;exitDx=0;exitDy=0;entryX=0;entryY=0;entryDx=0;entryDy=0;" edge="1" parent="p8BYgvt-08YJZqckWoOW-61" source="p8BYgvt-08YJZqckWoOW-57" target="p8BYgvt-08YJZqckWoOW-57">
          <mxGeometry width="50" height="50" relative="1" as="geometry">
            <mxPoint x="195.66001958333393" y="335.1586206896552" as="sourcePoint" />
            <mxPoint x="271.83085291666725" y="258.9862068965517" as="targetPoint" />
          </mxGeometry>
        </mxCell>
        <mxCell id="p8BYgvt-08YJZqckWoOW-62" value="" style="group" vertex="1" connectable="0" parent="WIyWlLk6GJQsqaUBKTNV-1">
          <mxGeometry x="370" y="30" width="860" height="1088.61" as="geometry" />
        </mxCell>
        <mxCell id="p8BYgvt-08YJZqckWoOW-0" value="&lt;font style=&quot;font-size: 16px;&quot;&gt;find_squares(matrix,value)&lt;/font&gt;" style="ellipse;whiteSpace=wrap;html=1;" vertex="1" parent="p8BYgvt-08YJZqckWoOW-62">
          <mxGeometry x="97.9746835443038" width="283.0379746835443" height="76.2027" as="geometry" />
        </mxCell>
        <mxCell id="p8BYgvt-08YJZqckWoOW-2" value="&lt;div style=&quot;font-size: 16px;&quot;&gt;&lt;font style=&quot;font-size: 16px;&quot;&gt;rows,cols = matrix.shape&lt;/font&gt;&lt;/div&gt;&lt;div style=&quot;font-size: 16px;&quot;&gt;&lt;font style=&quot;font-size: 16px;&quot;&gt;squared = []&lt;/font&gt;&lt;/div&gt;&lt;div style=&quot;font-size: 16px;&quot;&gt;&lt;font style=&quot;font-size: 16px;&quot;&gt;is_there = False&lt;font style=&quot;font-size: 16px;&quot;&gt;&lt;br&gt;&lt;/font&gt;&lt;/font&gt;&lt;/div&gt;" style="rounded=0;whiteSpace=wrap;html=1;" vertex="1" parent="p8BYgvt-08YJZqckWoOW-62">
          <mxGeometry x="119.74683544303798" y="108.86099999999999" width="239.49367088607596" height="87.08879999999999" as="geometry" />
        </mxCell>
        <mxCell id="p8BYgvt-08YJZqckWoOW-1" style="edgeStyle=orthogonalEdgeStyle;rounded=0;orthogonalLoop=1;jettySize=auto;html=1;exitX=0.5;exitY=1;exitDx=0;exitDy=0;" edge="1" parent="p8BYgvt-08YJZqckWoOW-62" source="p8BYgvt-08YJZqckWoOW-0" target="p8BYgvt-08YJZqckWoOW-2">
          <mxGeometry relative="1" as="geometry">
            <mxPoint x="239.49367088607596" y="108.86099999999999" as="targetPoint" />
          </mxGeometry>
        </mxCell>
        <mxCell id="p8BYgvt-08YJZqckWoOW-5" value="&lt;font style=&quot;font-size: 16px;&quot;&gt;i = 0, rows&lt;/font&gt;" style="shape=hexagon;perimeter=hexagonPerimeter2;whiteSpace=wrap;html=1;fixedSize=1;" vertex="1" parent="p8BYgvt-08YJZqckWoOW-62">
          <mxGeometry x="141.51898734177215" y="239.49419999999998" width="195.9493670886076" height="43.544399999999996" as="geometry" />
        </mxCell>
        <mxCell id="p8BYgvt-08YJZqckWoOW-4" style="edgeStyle=orthogonalEdgeStyle;rounded=0;orthogonalLoop=1;jettySize=auto;html=1;" edge="1" parent="p8BYgvt-08YJZqckWoOW-62" source="p8BYgvt-08YJZqckWoOW-2" target="p8BYgvt-08YJZqckWoOW-5">
          <mxGeometry relative="1" as="geometry">
            <mxPoint x="239.49367088607596" y="239.49419999999998" as="targetPoint" />
          </mxGeometry>
        </mxCell>
        <mxCell id="p8BYgvt-08YJZqckWoOW-36" style="edgeStyle=orthogonalEdgeStyle;rounded=0;orthogonalLoop=1;jettySize=auto;html=1;entryX=0;entryY=0.5;entryDx=0;entryDy=0;exitX=1;exitY=0.5;exitDx=0;exitDy=0;" edge="1" parent="p8BYgvt-08YJZqckWoOW-62" source="p8BYgvt-08YJZqckWoOW-6" target="p8BYgvt-08YJZqckWoOW-5">
          <mxGeometry relative="1" as="geometry">
            <Array as="points">
              <mxPoint x="860" y="348.35519999999997" />
              <mxPoint x="860" y="1088.61" />
              <mxPoint y="1088.61" />
              <mxPoint y="261.2664" />
            </Array>
          </mxGeometry>
        </mxCell>
        <mxCell id="p8BYgvt-08YJZqckWoOW-6" value="&lt;font style=&quot;font-size: 16px;&quot;&gt;j = 0, cols&lt;br&gt;&lt;/font&gt;" style="shape=hexagon;perimeter=hexagonPerimeter2;whiteSpace=wrap;html=1;fixedSize=1;" vertex="1" parent="p8BYgvt-08YJZqckWoOW-62">
          <mxGeometry x="141.51898734177215" y="326.58299999999997" width="195.9493670886076" height="43.544399999999996" as="geometry" />
        </mxCell>
        <mxCell id="p8BYgvt-08YJZqckWoOW-7" value="" style="edgeStyle=orthogonalEdgeStyle;rounded=0;orthogonalLoop=1;jettySize=auto;html=1;" edge="1" parent="p8BYgvt-08YJZqckWoOW-62" source="p8BYgvt-08YJZqckWoOW-5" target="p8BYgvt-08YJZqckWoOW-6">
          <mxGeometry relative="1" as="geometry" />
        </mxCell>
        <mxCell id="p8BYgvt-08YJZqckWoOW-8" value="&lt;font style=&quot;font-size: 16px;&quot;&gt;if matrix[i, j] == value&lt;/font&gt;" style="rhombus;whiteSpace=wrap;html=1;" vertex="1" parent="p8BYgvt-08YJZqckWoOW-62">
          <mxGeometry x="141.51898734177215" y="413.67179999999996" width="195.9493670886076" height="87.08879999999999" as="geometry" />
        </mxCell>
        <mxCell id="p8BYgvt-08YJZqckWoOW-9" value="" style="edgeStyle=orthogonalEdgeStyle;rounded=0;orthogonalLoop=1;jettySize=auto;html=1;" edge="1" parent="p8BYgvt-08YJZqckWoOW-62" source="p8BYgvt-08YJZqckWoOW-6" target="p8BYgvt-08YJZqckWoOW-8">
          <mxGeometry relative="1" as="geometry" />
        </mxCell>
        <mxCell id="p8BYgvt-08YJZqckWoOW-11" value="&lt;font style=&quot;font-size: 16px;&quot;&gt;size = 1&lt;/font&gt;" style="rounded=0;whiteSpace=wrap;html=1;" vertex="1" parent="p8BYgvt-08YJZqckWoOW-62">
          <mxGeometry x="174.17721518987344" y="549.7480499999999" width="130.63291139240508" height="43.544399999999996" as="geometry" />
        </mxCell>
        <mxCell id="p8BYgvt-08YJZqckWoOW-13" style="edgeStyle=orthogonalEdgeStyle;rounded=0;orthogonalLoop=1;jettySize=auto;html=1;exitX=0.5;exitY=1;exitDx=0;exitDy=0;entryX=0.5;entryY=0;entryDx=0;entryDy=0;" edge="1" parent="p8BYgvt-08YJZqckWoOW-62" source="p8BYgvt-08YJZqckWoOW-8" target="p8BYgvt-08YJZqckWoOW-11">
          <mxGeometry relative="1" as="geometry" />
        </mxCell>
        <mxCell id="p8BYgvt-08YJZqckWoOW-15" value="&lt;font style=&quot;font-size: 16px;&quot;&gt;i+size&amp;lt;rows&lt;/font&gt;" style="rhombus;whiteSpace=wrap;html=1;" vertex="1" parent="p8BYgvt-08YJZqckWoOW-62">
          <mxGeometry x="179.62025316455697" y="631.3937999999999" width="119.74683544303798" height="108.86099999999999" as="geometry" />
        </mxCell>
        <mxCell id="p8BYgvt-08YJZqckWoOW-14" style="edgeStyle=orthogonalEdgeStyle;rounded=0;orthogonalLoop=1;jettySize=auto;html=1;" edge="1" parent="p8BYgvt-08YJZqckWoOW-62" source="p8BYgvt-08YJZqckWoOW-11" target="p8BYgvt-08YJZqckWoOW-15">
          <mxGeometry relative="1" as="geometry">
            <mxPoint x="239.49367088607596" y="631.3937999999999" as="targetPoint" />
          </mxGeometry>
        </mxCell>
        <mxCell id="p8BYgvt-08YJZqckWoOW-16" value="&lt;font style=&quot;font-size: 16px;&quot;&gt;j+size&amp;lt;cols&lt;/font&gt;" style="rhombus;whiteSpace=wrap;html=1;" vertex="1" parent="p8BYgvt-08YJZqckWoOW-62">
          <mxGeometry x="386.45569620253167" y="631.3937999999999" width="119.74683544303798" height="108.86099999999999" as="geometry" />
        </mxCell>
        <mxCell id="p8BYgvt-08YJZqckWoOW-17" value="" style="edgeStyle=orthogonalEdgeStyle;rounded=0;orthogonalLoop=1;jettySize=auto;html=1;" edge="1" parent="p8BYgvt-08YJZqckWoOW-62" source="p8BYgvt-08YJZqckWoOW-15" target="p8BYgvt-08YJZqckWoOW-16">
          <mxGeometry relative="1" as="geometry" />
        </mxCell>
        <mxCell id="p8BYgvt-08YJZqckWoOW-18" value="&lt;font style=&quot;font-size: 16px;&quot;&gt;+&lt;/font&gt;" style="text;html=1;align=center;verticalAlign=middle;resizable=0;points=[];autosize=1;strokeColor=none;fillColor=none;" vertex="1" parent="p8BYgvt-08YJZqckWoOW-62">
          <mxGeometry x="285.2151898734177" y="657.5204399999999" width="30" height="30" as="geometry" />
        </mxCell>
        <mxCell id="p8BYgvt-08YJZqckWoOW-34" style="edgeStyle=orthogonalEdgeStyle;rounded=0;orthogonalLoop=1;jettySize=auto;html=1;entryX=0;entryY=0.5;entryDx=0;entryDy=0;exitX=1;exitY=0.5;exitDx=0;exitDy=0;" edge="1" parent="p8BYgvt-08YJZqckWoOW-62" source="p8BYgvt-08YJZqckWoOW-23" target="p8BYgvt-08YJZqckWoOW-6">
          <mxGeometry relative="1" as="geometry">
            <Array as="points">
              <mxPoint x="842.5822784810127" y="1055.9516999999998" />
              <mxPoint x="43.54430379746836" y="1055.9516999999998" />
              <mxPoint x="43.54430379746836" y="348.35519999999997" />
            </Array>
          </mxGeometry>
        </mxCell>
        <mxCell id="p8BYgvt-08YJZqckWoOW-23" value="&lt;font style=&quot;font-size: 16px;&quot;&gt;numpy.all(matrix[i:i+size+1, j:j+size+1] == value)&lt;/font&gt;" style="rhombus;whiteSpace=wrap;html=1;" vertex="1" parent="p8BYgvt-08YJZqckWoOW-62">
          <mxGeometry x="418.0253164556962" y="751.1408999999999" width="424.55696202531647" height="108.86099999999999" as="geometry" />
        </mxCell>
        <mxCell id="p8BYgvt-08YJZqckWoOW-21" style="edgeStyle=orthogonalEdgeStyle;rounded=0;orthogonalLoop=1;jettySize=auto;html=1;exitX=1;exitY=0.5;exitDx=0;exitDy=0;" edge="1" parent="p8BYgvt-08YJZqckWoOW-62" source="p8BYgvt-08YJZqckWoOW-16" target="p8BYgvt-08YJZqckWoOW-23">
          <mxGeometry relative="1" as="geometry">
            <mxPoint x="620.506329113924" y="685.8242999999999" as="targetPoint" />
            <mxPoint x="504.01443037974684" y="687.9906338999999" as="sourcePoint" />
          </mxGeometry>
        </mxCell>
        <mxCell id="p8BYgvt-08YJZqckWoOW-24" value="&lt;font style=&quot;font-size: 16px;&quot;&gt;+&lt;/font&gt;" style="text;html=1;align=center;verticalAlign=middle;resizable=0;points=[];autosize=1;strokeColor=none;fillColor=none;" vertex="1" parent="p8BYgvt-08YJZqckWoOW-62">
          <mxGeometry x="494.22784810126586" y="657.5204399999999" width="30" height="30" as="geometry" />
        </mxCell>
        <mxCell id="p8BYgvt-08YJZqckWoOW-26" value="&lt;div style=&quot;font-size: 16px;&quot;&gt;&lt;font style=&quot;font-size: 16px;&quot;&gt;squares.append((i, j, size+1))&lt;/font&gt;&lt;/div&gt;&lt;div style=&quot;font-size: 16px;&quot;&gt;&lt;font style=&quot;font-size: 16px;&quot;&gt;is_there = True&lt;/font&gt;&lt;/div&gt;&lt;font style=&quot;font-size: 16px;&quot;&gt;size += 1&lt;/font&gt;" style="rounded=0;whiteSpace=wrap;html=1;" vertex="1" parent="p8BYgvt-08YJZqckWoOW-62">
          <mxGeometry x="500.7594936708861" y="892.6601999999999" width="261.26582278481015" height="87.08879999999999" as="geometry" />
        </mxCell>
        <mxCell id="p8BYgvt-08YJZqckWoOW-25" style="edgeStyle=orthogonalEdgeStyle;rounded=0;orthogonalLoop=1;jettySize=auto;html=1;" edge="1" parent="p8BYgvt-08YJZqckWoOW-62" source="p8BYgvt-08YJZqckWoOW-23" target="p8BYgvt-08YJZqckWoOW-26">
          <mxGeometry relative="1" as="geometry">
            <mxPoint x="630.3037974683544" y="903.5462999999999" as="targetPoint" />
          </mxGeometry>
        </mxCell>
        <mxCell id="p8BYgvt-08YJZqckWoOW-29" value="" style="endArrow=none;html=1;rounded=0;entryX=0.5;entryY=1;entryDx=0;entryDy=0;" edge="1" parent="p8BYgvt-08YJZqckWoOW-62" target="p8BYgvt-08YJZqckWoOW-26">
          <mxGeometry width="50" height="50" relative="1" as="geometry">
            <mxPoint x="631.3924050632911" y="1023.2933999999999" as="sourcePoint" />
            <mxPoint x="587.8481012658228" y="816.4574999999999" as="targetPoint" />
          </mxGeometry>
        </mxCell>
        <mxCell id="p8BYgvt-08YJZqckWoOW-30" value="" style="endArrow=none;html=1;rounded=0;" edge="1" parent="p8BYgvt-08YJZqckWoOW-62">
          <mxGeometry width="50" height="50" relative="1" as="geometry">
            <mxPoint x="631.3924050632911" y="1023.2933999999999" as="sourcePoint" />
            <mxPoint x="97.9746835443038" y="1023.2933999999999" as="targetPoint" />
          </mxGeometry>
        </mxCell>
        <mxCell id="p8BYgvt-08YJZqckWoOW-31" value="" style="endArrow=none;html=1;rounded=0;" edge="1" parent="p8BYgvt-08YJZqckWoOW-62">
          <mxGeometry width="50" height="50" relative="1" as="geometry">
            <mxPoint x="97.9746835443038" y="1023.2933999999999" as="sourcePoint" />
            <mxPoint x="97.9746835443038" y="609.6216" as="targetPoint" />
          </mxGeometry>
        </mxCell>
        <mxCell id="p8BYgvt-08YJZqckWoOW-32" value="" style="endArrow=classic;html=1;rounded=0;" edge="1" parent="p8BYgvt-08YJZqckWoOW-62">
          <mxGeometry width="50" height="50" relative="1" as="geometry">
            <mxPoint x="97.9746835443038" y="609.6216" as="sourcePoint" />
            <mxPoint x="239.49367088607596" y="609.6216" as="targetPoint" />
          </mxGeometry>
        </mxCell>
        <mxCell id="p8BYgvt-08YJZqckWoOW-33" value="&lt;font style=&quot;font-size: 16px;&quot;&gt;+&lt;/font&gt;" style="text;html=1;align=center;verticalAlign=middle;resizable=0;points=[];autosize=1;strokeColor=none;fillColor=none;" vertex="1" parent="p8BYgvt-08YJZqckWoOW-62">
          <mxGeometry x="631.3924050632911" y="849.1157999999999" width="30" height="30" as="geometry" />
        </mxCell>
        <mxCell id="p8BYgvt-08YJZqckWoOW-38" value="&lt;font style=&quot;font-size: 16px;&quot;&gt;return squares, is_there&lt;/font&gt;" style="shape=parallelogram;perimeter=parallelogramPerimeter;whiteSpace=wrap;html=1;fixedSize=1;" vertex="1" parent="p8BYgvt-08YJZqckWoOW-62">
          <mxGeometry x="478.9873417721519" y="283.0386" width="239.49367088607596" height="32.6583" as="geometry" />
        </mxCell>
        <mxCell id="p8BYgvt-08YJZqckWoOW-37" style="edgeStyle=orthogonalEdgeStyle;rounded=0;orthogonalLoop=1;jettySize=auto;html=1;exitX=1;exitY=0.5;exitDx=0;exitDy=0;entryX=0.5;entryY=0;entryDx=0;entryDy=0;" edge="1" parent="p8BYgvt-08YJZqckWoOW-62" source="p8BYgvt-08YJZqckWoOW-5" target="p8BYgvt-08YJZqckWoOW-38">
          <mxGeometry relative="1" as="geometry">
            <mxPoint x="478.9873417721519" y="261.2664" as="targetPoint" />
          </mxGeometry>
        </mxCell>
        <mxCell id="p8BYgvt-08YJZqckWoOW-40" value="" style="endArrow=none;html=1;rounded=0;" edge="1" parent="p8BYgvt-08YJZqckWoOW-62">
          <mxGeometry width="50" height="50" relative="1" as="geometry">
            <mxPoint x="337.46835443037975" y="1023.2933999999999" as="sourcePoint" />
            <mxPoint x="337.46835443037975" y="685.8242999999999" as="targetPoint" />
          </mxGeometry>
        </mxCell>
      </root>
    </mxGraphModel>
  </diagram>
</mxfile>
